# xmcd
#
# Track frame offsets:
#	150
#	11525
#	24359
#	34583
#	46487
#	57398
#	71463
#	81282
#	92970
#	106042
#	117347
#	129460
#	139384
#	151159
#
# Disc length: 2214
#
# Revision: 2
# Processed by: cddbd v1.5.1PL0 Copyright (c) Steve Scherf et al.
# Submitted via: EasyCDDAExtractor 7.1.0.1
# Normalized: r1:DSETVAR1
#
DISCID=b308a40e
DTITLE=Various Artist - Dolly Parton and Friends
DYEAR=2004
DGENRE=country
TTITLE0=Dolly Parton - Makin' believe
TTITLE1=Lynn Anderson - Rose Garden
TTITLE2=Dolly Parton - Release Me
TTITLE3=Skeeter Davis - End of the World
TTITLE4=Dolly Parton - It wasn't god who made honkeytonk angels
TTITLE5=Billie Joe Spears - which way you goin' billy
TTITLE6=Dolly Parton - girl left alone
TTITLE7=Barbara Fairchild - you can't put the city in a country girl
TTITLE8=Dolly Parton - little blossom
TTITLE9=Donnay Fargo - superman
TTITLE10=Dolly Parton - two little orphans
TTITLE11=Sandy Posey - what a woman won't do
TTITLE12=Dolly Parton - letter to heaven
TTITLE13=Anne Murray - Both sides now
EXTD=
EXTT0=
EXTT1=
EXTT2=
EXTT3=
EXTT4=
EXTT5=
EXTT6=
EXTT7=
EXTT8=
EXTT9=
EXTT10=
EXTT11=
EXTT12=
EXTT13=
PLAYORDER=
